<svg width="316" height="58" viewBox="0 0 316 58" fill="none" xmlns="http://www.w3.org/2000/svg">
<path d="M38 5C24.1512 6.75392 -1.533 12.9255 22.5 29.5C46.533 46.0745 23.512 53.2327 7 54L38 5Z" stroke="black" stroke-opacity="0.5" stroke-width="7"/>
<path d="M70.512 38.288C69.184 38.288 67.896 38.112 66.648 37.76C65.416 37.392 64.424 36.92 63.672 36.344L64.992 33.416C65.712 33.944 66.568 34.368 67.56 34.688C68.552 35.008 69.544 35.168 70.536 35.168C71.64 35.168 72.456 35.008 72.984 34.688C73.512 34.352 73.776 33.912 73.776 33.368C73.776 32.968 73.616 32.64 73.296 32.384C72.992 32.112 72.592 31.896 72.096 31.736C71.616 31.576 70.96 31.4 70.128 31.208C68.848 30.904 67.8 30.6 66.984 30.296C66.168 29.992 65.464 29.504 64.872 28.832C64.296 28.16 64.008 27.264 64.008 26.144C64.008 25.168 64.272 24.288 64.8 23.504C65.328 22.704 66.12 22.072 67.176 21.608C68.248 21.144 69.552 20.912 71.088 20.912C72.16 20.912 73.208 21.04 74.232 21.296C75.256 21.552 76.152 21.92 76.92 22.4L75.72 25.352C74.168 24.472 72.616 24.032 71.064 24.032C69.976 24.032 69.168 24.208 68.64 24.56C68.128 24.912 67.872 25.376 67.872 25.952C67.872 26.528 68.168 26.96 68.76 27.248C69.368 27.52 70.288 27.792 71.52 28.064C72.8 28.368 73.848 28.672 74.664 28.976C75.48 29.28 76.176 29.76 76.752 30.416C77.344 31.072 77.64 31.96 77.64 33.08C77.64 34.04 77.368 34.92 76.824 35.72C76.296 36.504 75.496 37.128 74.424 37.592C73.352 38.056 72.048 38.288 70.512 38.288ZM92.3207 31.592C92.3207 31.64 92.2967 31.976 92.2487 32.6H82.4807C82.6567 33.4 83.0727 34.032 83.7287 34.496C84.3847 34.96 85.2007 35.192 86.1767 35.192C86.8487 35.192 87.4407 35.096 87.9527 34.904C88.4807 34.696 88.9687 34.376 89.4167 33.944L91.4087 36.104C90.1927 37.496 88.4167 38.192 86.0807 38.192C84.6247 38.192 83.3367 37.912 82.2167 37.352C81.0967 36.776 80.2327 35.984 79.6247 34.976C79.0167 33.968 78.7127 32.824 78.7127 31.544C78.7127 30.28 79.0087 29.144 79.6007 28.136C80.2087 27.112 81.0327 26.32 82.0727 25.76C83.1287 25.184 84.3047 24.896 85.6007 24.896C86.8647 24.896 88.0087 25.168 89.0327 25.712C90.0567 26.256 90.8567 27.04 91.4327 28.064C92.0247 29.072 92.3207 30.248 92.3207 31.592ZM85.6247 27.728C84.7767 27.728 84.0647 27.968 83.4887 28.448C82.9127 28.928 82.5607 29.584 82.4327 30.416H88.7927C88.6647 29.6 88.3127 28.952 87.7367 28.472C87.1607 27.976 86.4567 27.728 85.6247 27.728ZM94.4533 25.088H98.1973V38H94.4533V25.088ZM96.3253 23.288C95.6373 23.288 95.0773 23.088 94.6453 22.688C94.2133 22.288 93.9973 21.792 93.9973 21.2C93.9973 20.608 94.2133 20.112 94.6453 19.712C95.0773 19.312 95.6373 19.112 96.3253 19.112C97.0133 19.112 97.5733 19.304 98.0053 19.688C98.4373 20.072 98.6533 20.552 98.6533 21.128C98.6533 21.752 98.4373 22.272 98.0053 22.688C97.5733 23.088 97.0133 23.288 96.3253 23.288ZM105.656 38.192C104.584 38.192 103.536 38.064 102.512 37.808C101.488 37.536 100.672 37.2 100.064 36.8L101.312 34.112C101.888 34.48 102.584 34.784 103.4 35.024C104.216 35.248 105.016 35.36 105.8 35.36C107.384 35.36 108.176 34.968 108.176 34.184C108.176 33.816 107.96 33.552 107.528 33.392C107.096 33.232 106.432 33.096 105.536 32.984C104.48 32.824 103.608 32.64 102.92 32.432C102.232 32.224 101.632 31.856 101.12 31.328C100.624 30.8 100.376 30.048 100.376 29.072C100.376 28.256 100.608 27.536 101.072 26.912C101.552 26.272 102.24 25.776 103.136 25.424C104.048 25.072 105.12 24.896 106.352 24.896C107.264 24.896 108.168 25 109.064 25.208C109.976 25.4 110.728 25.672 111.32 26.024L110.072 28.688C108.936 28.048 107.696 27.728 106.352 27.728C105.552 27.728 104.952 27.84 104.552 28.064C104.152 28.288 103.952 28.576 103.952 28.928C103.952 29.328 104.168 29.608 104.6 29.768C105.032 29.928 105.72 30.08 106.664 30.224C107.72 30.4 108.584 30.592 109.256 30.8C109.928 30.992 110.512 31.352 111.008 31.88C111.504 32.408 111.752 33.144 111.752 34.088C111.752 34.888 111.512 35.6 111.032 36.224C110.552 36.848 109.848 37.336 108.92 37.688C108.008 38.024 106.92 38.192 105.656 38.192ZM130.238 24.896C131.854 24.896 133.134 25.376 134.078 26.336C135.038 27.28 135.518 28.704 135.518 30.608V38H131.774V31.184C131.774 30.16 131.558 29.4 131.126 28.904C130.71 28.392 130.11 28.136 129.326 28.136C128.446 28.136 127.75 28.424 127.238 29C126.726 29.56 126.47 30.4 126.47 31.52V38H122.726V31.184C122.726 29.152 121.91 28.136 120.278 28.136C119.414 28.136 118.726 28.424 118.214 29C117.702 29.56 117.446 30.4 117.446 31.52V38H113.702V25.088H117.278V26.576C117.758 26.032 118.342 25.616 119.03 25.328C119.734 25.04 120.502 24.896 121.334 24.896C122.246 24.896 123.07 25.08 123.806 25.448C124.542 25.8 125.134 26.32 125.582 27.008C126.11 26.336 126.774 25.816 127.574 25.448C128.39 25.08 129.278 24.896 130.238 24.896ZM144.799 38.192C143.439 38.192 142.215 37.912 141.127 37.352C140.055 36.776 139.215 35.984 138.607 34.976C137.999 33.968 137.695 32.824 137.695 31.544C137.695 30.264 137.999 29.12 138.607 28.112C139.215 27.104 140.055 26.32 141.127 25.76C142.215 25.184 143.439 24.896 144.799 24.896C146.159 24.896 147.375 25.184 148.447 25.76C149.519 26.32 150.359 27.104 150.967 28.112C151.575 29.12 151.879 30.264 151.879 31.544C151.879 32.824 151.575 33.968 150.967 34.976C150.359 35.984 149.519 36.776 148.447 37.352C147.375 37.912 146.159 38.192 144.799 38.192ZM144.799 35.12C145.759 35.12 146.543 34.8 147.151 34.16C147.775 33.504 148.087 32.632 148.087 31.544C148.087 30.456 147.775 29.592 147.151 28.952C146.543 28.296 145.759 27.968 144.799 27.968C143.839 27.968 143.047 28.296 142.423 28.952C141.799 29.592 141.487 30.456 141.487 31.544C141.487 32.632 141.799 33.504 142.423 34.16C143.047 34.8 143.839 35.12 144.799 35.12ZM154.021 20.192H157.765V38H154.021V20.192ZM167.024 38.192C165.664 38.192 164.44 37.912 163.352 37.352C162.28 36.776 161.44 35.984 160.832 34.976C160.224 33.968 159.92 32.824 159.92 31.544C159.92 30.264 160.224 29.12 160.832 28.112C161.44 27.104 162.28 26.32 163.352 25.76C164.44 25.184 165.664 24.896 167.024 24.896C168.384 24.896 169.6 25.184 170.672 25.76C171.744 26.32 172.584 27.104 173.192 28.112C173.8 29.12 174.104 30.264 174.104 31.544C174.104 32.824 173.8 33.968 173.192 34.976C172.584 35.984 171.744 36.776 170.672 37.352C169.6 37.912 168.384 38.192 167.024 38.192ZM167.024 35.12C167.984 35.12 168.768 34.8 169.376 34.16C170 33.504 170.312 32.632 170.312 31.544C170.312 30.456 170 29.592 169.376 28.952C168.768 28.296 167.984 27.968 167.024 27.968C166.064 27.968 165.272 28.296 164.648 28.952C164.024 29.592 163.712 30.456 163.712 31.544C163.712 32.632 164.024 33.504 164.648 34.16C165.272 34.8 166.064 35.12 167.024 35.12ZM189.566 25.088V35.84C189.566 38.208 188.95 39.968 187.718 41.12C186.486 42.272 184.686 42.848 182.318 42.848C181.07 42.848 179.886 42.696 178.766 42.392C177.646 42.088 176.718 41.648 175.982 41.072L177.47 38.384C178.014 38.832 178.702 39.184 179.534 39.44C180.366 39.712 181.198 39.848 182.03 39.848C183.326 39.848 184.278 39.552 184.886 38.96C185.51 38.384 185.822 37.504 185.822 36.32V35.768C184.846 36.84 183.486 37.376 181.742 37.376C180.558 37.376 179.47 37.12 178.478 36.608C177.502 36.08 176.726 35.344 176.15 34.4C175.574 33.456 175.286 32.368 175.286 31.136C175.286 29.904 175.574 28.816 176.15 27.872C176.726 26.928 177.502 26.2 178.478 25.688C179.47 25.16 180.558 24.896 181.742 24.896C183.614 24.896 185.038 25.512 186.014 26.744V25.088H189.566ZM182.486 34.304C183.478 34.304 184.286 34.016 184.91 33.44C185.55 32.848 185.87 32.08 185.87 31.136C185.87 30.192 185.55 29.432 184.91 28.856C184.286 28.264 183.478 27.968 182.486 27.968C181.494 27.968 180.678 28.264 180.038 28.856C179.398 29.432 179.078 30.192 179.078 31.136C179.078 32.08 179.398 32.848 180.038 33.44C180.678 34.016 181.494 34.304 182.486 34.304ZM205.507 25.088L199.675 38.792C199.083 40.28 198.347 41.328 197.467 41.936C196.603 42.544 195.555 42.848 194.323 42.848C193.651 42.848 192.987 42.744 192.331 42.536C191.675 42.328 191.139 42.04 190.723 41.672L192.091 39.008C192.379 39.264 192.707 39.464 193.075 39.608C193.459 39.752 193.835 39.824 194.203 39.824C194.715 39.824 195.131 39.696 195.451 39.44C195.771 39.2 196.059 38.792 196.315 38.216L196.363 38.096L190.771 25.088H194.635L198.259 33.848L201.907 25.088H205.507ZM213.376 21.2H217.264V38H213.376V21.2ZM228.475 24.896C230.075 24.896 231.363 25.376 232.339 26.336C233.331 27.296 233.827 28.72 233.827 30.608V38H230.083V31.184C230.083 30.16 229.859 29.4 229.411 28.904C228.963 28.392 228.315 28.136 227.467 28.136C226.523 28.136 225.771 28.432 225.211 29.024C224.651 29.6 224.371 30.464 224.371 31.616V38H220.627V25.088H224.203V26.6C224.699 26.056 225.315 25.64 226.051 25.352C226.787 25.048 227.595 24.896 228.475 24.896ZM241.205 38.192C240.133 38.192 239.085 38.064 238.061 37.808C237.037 37.536 236.221 37.2 235.613 36.8L236.861 34.112C237.437 34.48 238.133 34.784 238.949 35.024C239.765 35.248 240.565 35.36 241.349 35.36C242.933 35.36 243.725 34.968 243.725 34.184C243.725 33.816 243.509 33.552 243.077 33.392C242.645 33.232 241.981 33.096 241.085 32.984C240.029 32.824 239.157 32.64 238.469 32.432C237.781 32.224 237.181 31.856 236.669 31.328C236.173 30.8 235.925 30.048 235.925 29.072C235.925 28.256 236.157 27.536 236.621 26.912C237.101 26.272 237.789 25.776 238.685 25.424C239.597 25.072 240.669 24.896 241.901 24.896C242.813 24.896 243.717 25 244.613 25.208C245.525 25.4 246.277 25.672 246.869 26.024L245.621 28.688C244.485 28.048 243.245 27.728 241.901 27.728C241.101 27.728 240.501 27.84 240.101 28.064C239.701 28.288 239.501 28.576 239.501 28.928C239.501 29.328 239.717 29.608 240.149 29.768C240.581 29.928 241.269 30.08 242.213 30.224C243.269 30.4 244.133 30.592 244.805 30.8C245.477 30.992 246.061 31.352 246.557 31.88C247.053 32.408 247.301 33.144 247.301 34.088C247.301 34.888 247.061 35.6 246.581 36.224C246.101 36.848 245.397 37.336 244.469 37.688C243.557 38.024 242.469 38.192 241.205 38.192ZM257.579 37.376C257.211 37.648 256.755 37.856 256.211 38C255.683 38.128 255.123 38.192 254.531 38.192C252.995 38.192 251.803 37.8 250.955 37.016C250.123 36.232 249.707 35.08 249.707 33.56V28.256H247.715V25.376H249.707V22.232H253.451V25.376H256.667V28.256H253.451V33.512C253.451 34.056 253.587 34.48 253.859 34.784C254.147 35.072 254.547 35.216 255.059 35.216C255.651 35.216 256.155 35.056 256.571 34.736L257.579 37.376ZM259.32 25.088H263.064V38H259.32V25.088ZM261.192 23.288C260.504 23.288 259.944 23.088 259.512 22.688C259.08 22.288 258.864 21.792 258.864 21.2C258.864 20.608 259.08 20.112 259.512 19.712C259.944 19.312 260.504 19.112 261.192 19.112C261.88 19.112 262.44 19.304 262.872 19.688C263.304 20.072 263.52 20.552 263.52 21.128C263.52 21.752 263.304 22.272 262.872 22.688C262.44 23.088 261.88 23.288 261.192 23.288ZM274.507 37.376C274.139 37.648 273.683 37.856 273.139 38C272.611 38.128 272.051 38.192 271.459 38.192C269.923 38.192 268.731 37.8 267.883 37.016C267.051 36.232 266.635 35.08 266.635 33.56V28.256H264.643V25.376H266.635V22.232H270.379V25.376H273.595V28.256H270.379V33.512C270.379 34.056 270.515 34.48 270.787 34.784C271.075 35.072 271.475 35.216 271.987 35.216C272.579 35.216 273.083 35.056 273.499 34.736L274.507 37.376ZM289.257 25.088V38H285.705V36.464C285.209 37.024 284.617 37.456 283.929 37.76C283.241 38.048 282.497 38.192 281.697 38.192C280.001 38.192 278.657 37.704 277.665 36.728C276.673 35.752 276.177 34.304 276.177 32.384V25.088H279.921V31.832C279.921 33.912 280.793 34.952 282.537 34.952C283.433 34.952 284.153 34.664 284.697 34.088C285.241 33.496 285.513 32.624 285.513 31.472V25.088H289.257ZM300.693 37.376C300.325 37.648 299.869 37.856 299.325 38C298.797 38.128 298.237 38.192 297.645 38.192C296.109 38.192 294.917 37.8 294.069 37.016C293.237 36.232 292.821 35.08 292.821 33.56V28.256H290.829V25.376H292.821V22.232H296.565V25.376H299.781V28.256H296.565V33.512C296.565 34.056 296.701 34.48 296.973 34.784C297.261 35.072 297.661 35.216 298.173 35.216C298.765 35.216 299.269 35.056 299.685 34.736L300.693 37.376ZM314.684 31.592C314.684 31.64 314.66 31.976 314.612 32.6H304.844C305.02 33.4 305.436 34.032 306.092 34.496C306.748 34.96 307.564 35.192 308.54 35.192C309.212 35.192 309.804 35.096 310.316 34.904C310.844 34.696 311.332 34.376 311.78 33.944L313.772 36.104C312.556 37.496 310.78 38.192 308.444 38.192C306.988 38.192 305.7 37.912 304.58 37.352C303.46 36.776 302.596 35.984 301.988 34.976C301.38 33.968 301.076 32.824 301.076 31.544C301.076 30.28 301.372 29.144 301.964 28.136C302.572 27.112 303.396 26.32 304.436 25.76C305.492 25.184 306.668 24.896 307.964 24.896C309.228 24.896 310.372 25.168 311.396 25.712C312.42 26.256 313.22 27.04 313.796 28.064C314.388 29.072 314.684 30.248 314.684 31.592ZM307.988 27.728C307.14 27.728 306.428 27.968 305.852 28.448C305.276 28.928 304.924 29.584 304.796 30.416H311.156C311.028 29.6 310.676 28.952 310.1 28.472C309.524 27.976 308.82 27.728 307.988 27.728Z" fill="black" fill-opacity="0.5"/>
</svg>
