<svg width="158" height="115" viewBox="0 0 158 115" fill="none" xmlns="http://www.w3.org/2000/svg">
<path d="M103.5 0C81.8333 2.66667 41.65 12.05 79.25 37.25C116.85 62.45 80.8333 73.3333 55 74.5L103.5 0Z" stroke="black" stroke-opacity="0.5" stroke-width="10"/>
<path d="M4.695 108.18C3.865 108.18 3.06 108.07 2.28 107.85C1.51 107.62 0.89 107.325 0.42 106.965L1.245 105.135C1.695 105.465 2.23 105.73 2.85 105.93C3.47 106.13 4.09 106.23 4.71 106.23C5.4 106.23 5.91 106.13 6.24 105.93C6.57 105.72 6.735 105.445 6.735 105.105C6.735 104.855 6.635 104.65 6.435 104.49C6.245 104.32 5.995 104.185 5.685 104.085C5.385 103.985 4.975 103.875 4.455 103.755C3.655 103.565 3 103.375 2.49 103.185C1.98 102.995 1.54 102.69 1.17 102.27C0.81 101.85 0.63 101.29 0.63 100.59C0.63 99.98 0.795 99.43 1.125 98.94C1.455 98.44 1.95 98.045 2.61 97.755C3.28 97.465 4.095 97.32 5.055 97.32C5.725 97.32 6.38 97.4 7.02 97.56C7.66 97.72 8.22 97.95 8.7 98.25L7.95 100.095C6.98 99.545 6.01 99.27 5.04 99.27C4.36 99.27 3.855 99.38 3.525 99.6C3.205 99.82 3.045 100.11 3.045 100.47C3.045 100.83 3.23 101.1 3.6 101.28C3.98 101.45 4.555 101.62 5.325 101.79C6.125 101.98 6.78 102.17 7.29 102.36C7.8 102.55 8.235 102.85 8.595 103.26C8.965 103.67 9.15 104.225 9.15 104.925C9.15 105.525 8.98 106.075 8.64 106.575C8.31 107.065 7.81 107.455 7.14 107.745C6.47 108.035 5.655 108.18 4.695 108.18ZM18.3254 103.995C18.3254 104.025 18.3104 104.235 18.2804 104.625H12.1754C12.2854 105.125 12.5454 105.52 12.9554 105.81C13.3654 106.1 13.8754 106.245 14.4854 106.245C14.9054 106.245 15.2754 106.185 15.5954 106.065C15.9254 105.935 16.2304 105.735 16.5104 105.465L17.7554 106.815C16.9954 107.685 15.8854 108.12 14.4254 108.12C13.5154 108.12 12.7104 107.945 12.0104 107.595C11.3104 107.235 10.7704 106.74 10.3904 106.11C10.0104 105.48 9.82043 104.765 9.82043 103.965C9.82043 103.175 10.0054 102.465 10.3754 101.835C10.7554 101.195 11.2704 100.7 11.9204 100.35C12.5804 99.99 13.3154 99.81 14.1254 99.81C14.9154 99.81 15.6304 99.98 16.2704 100.32C16.9104 100.66 17.4104 101.15 17.7704 101.79C18.1404 102.42 18.3254 103.155 18.3254 103.995ZM14.1404 101.58C13.6104 101.58 13.1654 101.73 12.8054 102.03C12.4454 102.33 12.2254 102.74 12.1454 103.26H16.1204C16.0404 102.75 15.8204 102.345 15.4604 102.045C15.1004 101.735 14.6604 101.58 14.1404 101.58ZM19.6583 99.93H21.9983V108H19.6583V99.93ZM20.8283 98.805C20.3983 98.805 20.0483 98.68 19.7783 98.43C19.5083 98.18 19.3733 97.87 19.3733 97.5C19.3733 97.13 19.5083 96.82 19.7783 96.57C20.0483 96.32 20.3983 96.195 20.8283 96.195C21.2583 96.195 21.6083 96.315 21.8783 96.555C22.1483 96.795 22.2833 97.095 22.2833 97.455C22.2833 97.845 22.1483 98.17 21.8783 98.43C21.6083 98.68 21.2583 98.805 20.8283 98.805ZM26.66 108.12C25.99 108.12 25.335 108.04 24.695 107.88C24.055 107.71 23.545 107.5 23.165 107.25L23.945 105.57C24.305 105.8 24.74 105.99 25.25 106.14C25.76 106.28 26.26 106.35 26.75 106.35C27.74 106.35 28.235 106.105 28.235 105.615C28.235 105.385 28.1 105.22 27.83 105.12C27.56 105.02 27.145 104.935 26.585 104.865C25.925 104.765 25.38 104.65 24.95 104.52C24.52 104.39 24.145 104.16 23.825 103.83C23.515 103.5 23.36 103.03 23.36 102.42C23.36 101.91 23.505 101.46 23.795 101.07C24.095 100.67 24.525 100.36 25.085 100.14C25.655 99.92 26.325 99.81 27.095 99.81C27.665 99.81 28.23 99.875 28.79 100.005C29.36 100.125 29.83 100.295 30.2 100.515L29.42 102.18C28.71 101.78 27.935 101.58 27.095 101.58C26.595 101.58 26.22 101.65 25.97 101.79C25.72 101.93 25.595 102.11 25.595 102.33C25.595 102.58 25.73 102.755 26 102.855C26.27 102.955 26.7 103.05 27.29 103.14C27.95 103.25 28.49 103.37 28.91 103.5C29.33 103.62 29.695 103.845 30.005 104.175C30.315 104.505 30.47 104.965 30.47 105.555C30.47 106.055 30.32 106.5 30.02 106.89C29.72 107.28 29.28 107.585 28.7 107.805C28.13 108.015 27.45 108.12 26.66 108.12ZM42.0238 99.81C43.0338 99.81 43.8338 100.11 44.4238 100.71C45.0238 101.3 45.3238 102.19 45.3238 103.38V108H42.9838V103.74C42.9838 103.1 42.8488 102.625 42.5788 102.315C42.3188 101.995 41.9438 101.835 41.4538 101.835C40.9038 101.835 40.4688 102.015 40.1488 102.375C39.8288 102.725 39.6688 103.25 39.6688 103.95V108H37.3288V103.74C37.3288 102.47 36.8188 101.835 35.7988 101.835C35.2588 101.835 34.8288 102.015 34.5088 102.375C34.1888 102.725 34.0288 103.25 34.0288 103.95V108H31.6888V99.93H33.9238V100.86C34.2238 100.52 34.5888 100.26 35.0188 100.08C35.4588 99.9 35.9388 99.81 36.4588 99.81C37.0288 99.81 37.5438 99.925 38.0038 100.155C38.4638 100.375 38.8338 100.7 39.1138 101.13C39.4438 100.71 39.8588 100.385 40.3588 100.155C40.8688 99.925 41.4238 99.81 42.0238 99.81ZM51.1241 108.12C50.2741 108.12 49.5091 107.945 48.8291 107.595C48.1591 107.235 47.6341 106.74 47.2541 106.11C46.8741 105.48 46.6841 104.765 46.6841 103.965C46.6841 103.165 46.8741 102.45 47.2541 101.82C47.6341 101.19 48.1591 100.7 48.8291 100.35C49.5091 99.99 50.2741 99.81 51.1241 99.81C51.9741 99.81 52.7341 99.99 53.4041 100.35C54.0741 100.7 54.5991 101.19 54.9791 101.82C55.3591 102.45 55.5491 103.165 55.5491 103.965C55.5491 104.765 55.3591 105.48 54.9791 106.11C54.5991 106.74 54.0741 107.235 53.4041 107.595C52.7341 107.945 51.9741 108.12 51.1241 108.12ZM51.1241 106.2C51.7241 106.2 52.2141 106 52.5941 105.6C52.9841 105.19 53.1791 104.645 53.1791 103.965C53.1791 103.285 52.9841 102.745 52.5941 102.345C52.2141 101.935 51.7241 101.73 51.1241 101.73C50.5241 101.73 50.0291 101.935 49.6391 102.345C49.2491 102.745 49.0541 103.285 49.0541 103.965C49.0541 104.645 49.2491 105.19 49.6391 105.6C50.0291 106 50.5241 106.2 51.1241 106.2ZM56.8882 96.87H59.2282V108H56.8882V96.87ZM65.0149 108.12C64.1649 108.12 63.3999 107.945 62.7199 107.595C62.0499 107.235 61.5249 106.74 61.1449 106.11C60.7649 105.48 60.5749 104.765 60.5749 103.965C60.5749 103.165 60.7649 102.45 61.1449 101.82C61.5249 101.19 62.0499 100.7 62.7199 100.35C63.3999 99.99 64.1649 99.81 65.0149 99.81C65.8649 99.81 66.6249 99.99 67.2949 100.35C67.9649 100.7 68.4899 101.19 68.8699 101.82C69.2499 102.45 69.4399 103.165 69.4399 103.965C69.4399 104.765 69.2499 105.48 68.8699 106.11C68.4899 106.74 67.9649 107.235 67.2949 107.595C66.6249 107.945 65.8649 108.12 65.0149 108.12ZM65.0149 106.2C65.6149 106.2 66.1049 106 66.4849 105.6C66.8749 105.19 67.0699 104.645 67.0699 103.965C67.0699 103.285 66.8749 102.745 66.4849 102.345C66.1049 101.935 65.6149 101.73 65.0149 101.73C64.4149 101.73 63.9199 101.935 63.5299 102.345C63.1399 102.745 62.9449 103.285 62.9449 103.965C62.9449 104.645 63.1399 105.19 63.5299 105.6C63.9199 106 64.4149 106.2 65.0149 106.2ZM79.104 99.93V106.65C79.104 108.13 78.719 109.23 77.949 109.95C77.179 110.67 76.054 111.03 74.574 111.03C73.794 111.03 73.054 110.935 72.354 110.745C71.654 110.555 71.074 110.28 70.614 109.92L71.544 108.24C71.884 108.52 72.314 108.74 72.834 108.9C73.354 109.07 73.874 109.155 74.394 109.155C75.204 109.155 75.799 108.97 76.179 108.6C76.569 108.24 76.764 107.69 76.764 106.95V106.605C76.154 107.275 75.304 107.61 74.214 107.61C73.474 107.61 72.794 107.45 72.174 107.13C71.564 106.8 71.079 106.34 70.719 105.75C70.359 105.16 70.179 104.48 70.179 103.71C70.179 102.94 70.359 102.26 70.719 101.67C71.079 101.08 71.564 100.625 72.174 100.305C72.794 99.975 73.474 99.81 74.214 99.81C75.384 99.81 76.274 100.195 76.884 100.965V99.93H79.104ZM74.679 105.69C75.299 105.69 75.804 105.51 76.194 105.15C76.594 104.78 76.794 104.3 76.794 103.71C76.794 103.12 76.594 102.645 76.194 102.285C75.804 101.915 75.299 101.73 74.679 101.73C74.059 101.73 73.549 101.915 73.149 102.285C72.749 102.645 72.549 103.12 72.549 103.71C72.549 104.3 72.749 104.78 73.149 105.15C73.549 105.51 74.059 105.69 74.679 105.69ZM89.067 99.93L85.422 108.495C85.052 109.425 84.592 110.08 84.042 110.46C83.502 110.84 82.847 111.03 82.077 111.03C81.657 111.03 81.242 110.965 80.832 110.835C80.422 110.705 80.087 110.525 79.827 110.295L80.682 108.63C80.862 108.79 81.067 108.915 81.297 109.005C81.537 109.095 81.772 109.14 82.002 109.14C82.322 109.14 82.582 109.06 82.782 108.9C82.982 108.75 83.162 108.495 83.322 108.135L83.352 108.06L79.857 99.93H82.272L84.537 105.405L86.817 99.93H89.067ZM93.9848 97.5H96.4148V108H93.9848V97.5ZM103.422 99.81C104.422 99.81 105.227 100.11 105.837 100.71C106.457 101.31 106.767 102.2 106.767 103.38V108H104.427V103.74C104.427 103.1 104.287 102.625 104.007 102.315C103.727 101.995 103.322 101.835 102.792 101.835C102.202 101.835 101.732 102.02 101.382 102.39C101.032 102.75 100.857 103.29 100.857 104.01V108H98.5167V99.93H100.752V100.875C101.062 100.535 101.447 100.275 101.907 100.095C102.367 99.905 102.872 99.81 103.422 99.81ZM111.378 108.12C110.708 108.12 110.053 108.04 109.413 107.88C108.773 107.71 108.263 107.5 107.883 107.25L108.663 105.57C109.023 105.8 109.458 105.99 109.968 106.14C110.478 106.28 110.978 106.35 111.468 106.35C112.458 106.35 112.953 106.105 112.953 105.615C112.953 105.385 112.818 105.22 112.548 105.12C112.278 105.02 111.863 104.935 111.303 104.865C110.643 104.765 110.098 104.65 109.668 104.52C109.238 104.39 108.863 104.16 108.543 103.83C108.233 103.5 108.078 103.03 108.078 102.42C108.078 101.91 108.223 101.46 108.513 101.07C108.813 100.67 109.243 100.36 109.803 100.14C110.373 99.92 111.043 99.81 111.813 99.81C112.383 99.81 112.948 99.875 113.508 100.005C114.078 100.125 114.548 100.295 114.918 100.515L114.138 102.18C113.428 101.78 112.653 101.58 111.813 101.58C111.313 101.58 110.938 101.65 110.688 101.79C110.438 101.93 110.313 102.11 110.313 102.33C110.313 102.58 110.448 102.755 110.718 102.855C110.988 102.955 111.418 103.05 112.008 103.14C112.668 103.25 113.208 103.37 113.628 103.5C114.048 103.62 114.413 103.845 114.723 104.175C115.033 104.505 115.188 104.965 115.188 105.555C115.188 106.055 115.038 106.5 114.738 106.89C114.438 107.28 113.998 107.585 113.418 107.805C112.848 108.015 112.168 108.12 111.378 108.12ZM121.612 107.61C121.382 107.78 121.097 107.91 120.757 108C120.427 108.08 120.077 108.12 119.707 108.12C118.747 108.12 118.002 107.875 117.472 107.385C116.952 106.895 116.692 106.175 116.692 105.225V101.91H115.447V100.11H116.692V98.145H119.032V100.11H121.042V101.91H119.032V105.195C119.032 105.535 119.117 105.8 119.287 105.99C119.467 106.17 119.717 106.26 120.037 106.26C120.407 106.26 120.722 106.16 120.982 105.96L121.612 107.61ZM122.7 99.93H125.04V108H122.7V99.93ZM123.87 98.805C123.44 98.805 123.09 98.68 122.82 98.43C122.55 98.18 122.415 97.87 122.415 97.5C122.415 97.13 122.55 96.82 122.82 96.57C123.09 96.32 123.44 96.195 123.87 96.195C124.3 96.195 124.65 96.315 124.92 96.555C125.19 96.795 125.325 97.095 125.325 97.455C125.325 97.845 125.19 98.17 124.92 98.43C124.65 98.68 124.3 98.805 123.87 98.805ZM132.192 107.61C131.962 107.78 131.677 107.91 131.337 108C131.007 108.08 130.657 108.12 130.287 108.12C129.327 108.12 128.582 107.875 128.052 107.385C127.532 106.895 127.272 106.175 127.272 105.225V101.91H126.027V100.11H127.272V98.145H129.612V100.11H131.622V101.91H129.612V105.195C129.612 105.535 129.697 105.8 129.867 105.99C130.047 106.17 130.297 106.26 130.617 106.26C130.987 106.26 131.302 106.16 131.562 105.96L132.192 107.61ZM141.41 99.93V108H139.19V107.04C138.88 107.39 138.51 107.66 138.08 107.85C137.65 108.03 137.185 108.12 136.685 108.12C135.625 108.12 134.785 107.815 134.165 107.205C133.545 106.595 133.235 105.69 133.235 104.49V99.93H135.575V104.145C135.575 105.445 136.12 106.095 137.21 106.095C137.77 106.095 138.22 105.915 138.56 105.555C138.9 105.185 139.07 104.64 139.07 103.92V99.93H141.41ZM148.558 107.61C148.328 107.78 148.043 107.91 147.703 108C147.373 108.08 147.023 108.12 146.653 108.12C145.693 108.12 144.948 107.875 144.418 107.385C143.898 106.895 143.638 106.175 143.638 105.225V101.91H142.393V100.11H143.638V98.145H145.978V100.11H147.988V101.91H145.978V105.195C145.978 105.535 146.063 105.8 146.233 105.99C146.413 106.17 146.663 106.26 146.983 106.26C147.353 106.26 147.668 106.16 147.928 105.96L148.558 107.61ZM157.303 103.995C157.303 104.025 157.288 104.235 157.258 104.625H151.153C151.263 105.125 151.523 105.52 151.933 105.81C152.343 106.1 152.853 106.245 153.463 106.245C153.883 106.245 154.253 106.185 154.573 106.065C154.903 105.935 155.208 105.735 155.488 105.465L156.733 106.815C155.973 107.685 154.863 108.12 153.403 108.12C152.493 108.12 151.688 107.945 150.988 107.595C150.288 107.235 149.748 106.74 149.368 106.11C148.988 105.48 148.798 104.765 148.798 103.965C148.798 103.175 148.983 102.465 149.353 101.835C149.733 101.195 150.248 100.7 150.898 100.35C151.558 99.99 152.293 99.81 153.103 99.81C153.893 99.81 154.608 99.98 155.248 100.32C155.888 100.66 156.388 101.15 156.748 101.79C157.118 102.42 157.303 103.155 157.303 103.995ZM153.118 101.58C152.588 101.58 152.143 101.73 151.783 102.03C151.423 102.33 151.203 102.74 151.123 103.26H155.098C155.018 102.75 154.798 102.345 154.438 102.045C154.078 101.735 153.638 101.58 153.118 101.58Z" fill="black" fill-opacity="0.5"/>
</svg>
